<?xml version="1.0" standalone="no"?>
<svg version="1.0" xmlns="http://www.w3.org/2000/svg"
 width="200" height="60" viewBox="600 3200 8800 3800"
 preserveAspectRatio="xMidYMid meet">
<g transform="translate(0.000000,10240.000000) scale(1.0,-1.0)"
fill="#C9A84C" stroke="none">
<path d="M7717 6853 c-2 -5 -344 -691 -761 -1527 l-757 -1518 -37 6 c-20 3 -131
6 -247 6 l-210 0 -24 43 c-26 47 -121 201 -410 668 -66 109 -124 204 -127 213
-5 14 -37 16 -270 16 l-264 0 -1 -332 -1 -333 -95 195 c-52 107 -158 325 -235
485 l-139 289 1 675 c0 371 2 676 3 678 2 1 282 3 623 3 598 1 623 1 724 -20
345 -72 562 -258 642 -550 19 -72 23 -110 23 -240 0 -180 -18 -258 -87 -394
-71 -139 -232 -282 -388 -347 -30 -12 -59 -25 -63 -29 -5 -4 38 -79 94 -166
56 -87 126 -198 156 -246 30 -49 57 -88 61 -88 8 0 23 25 212 350 154 264 740
1265 887 1515 l129 220 279 218 c153 119 280 217 282 217 2 0 2 -3 0 -7z
m-4405 -596 c43 -89 188 -389 324 -667 136 -278 288 -590 339 -695 51 -104
152 -311 225 -460 73 -148 170 -348 216 -442 l83 -173 -257 0 -257 0 -114 238
c-63 130 -128 267 -144 305 l-30 67 -614 0 -614 0 -16 -37 c-8 -21 -47 -105
-87 -188 -39 -82 -96 -203 -126 -267 l-55 -117 -258 -1 -257 0 59 119 c33 65
75 151 94 192 19 41 100 207 180 369 79 162 172 351 205 420 85 177 194 402
476 979 135 277 246 508 246 512 0 5 69 9 153 8 l152 0 77 -162z m4441 -757
c124 -256 314 -647 422 -870 109 -223 242 -496 296 -607 l98 -203 -260 0
c-142 0 -259 4 -259 9 0 4 -42 96 -93 202 -51 107 -115 240 -142 297 l-49 102
-509 0 c-301 0 -507 4 -505 9 2 5 48 100 103 210 l99 201 303 0 c205 0 303 3
303 10 0 6 -29 73 -64 148 -132 281 -216 466 -216 476 -1 19 235 494 241 487
3 -3 108 -215 232 -471z"/>
<path d="M4617 5994 c-4 -4 -7 -187 -7 -406 l0 -399 373 3 372 3 75 29 c61 24
88 42 142 96 59 59 69 75 88 139 31 102 25 230 -15 319 -30 67 -89 128 -157
163 -89 46 -135 51 -508 56 -196 2 -359 1 -363 -3z"/>
<path d="M3043 5653 c-108 -230 -328 -704 -349 -750 l-24 -53 415 0 415 0 -21
43 c-25 48 -129 272 -229 492 -37 83 -90 196 -117 253 l-49 103 -41 -88z"/>
</g>
</svg>
